<?xml version="1.0" encoding="UTF-8" standalone="no"?>
<!-- Created with Inkscape (http://www.inkscape.org/) -->

<svg
   xmlns:dc="http://purl.org/dc/elements/1.1/"
   xmlns:cc="http://creativecommons.org/ns#"
   xmlns:rdf="http://www.w3.org/1999/02/22-rdf-syntax-ns#"
   xmlns:svg="http://www.w3.org/2000/svg"
   xmlns="http://www.w3.org/2000/svg"
   xmlns:sodipodi="http://sodipodi.sourceforge.net/DTD/sodipodi-0.dtd"
   xmlns:inkscape="http://www.inkscape.org/namespaces/inkscape"
   width="25.302679cm"
   height="6.3608975cm"
   id="svg3464"
   version="1.1"
   inkscape:version="0.91 r13725"
   viewBox="0 0 896.55162 225.38615"
   sodipodi:docname="P-EXP-R.svg">
  <defs
     id="defs3466">
    <marker
       inkscape:stockid="Arrow1Mend"
       orient="auto"
       refY="0"
       refX="0"
       id="Arrow1Mend"
       style="overflow:visible"
       inkscape:isstock="true">
      <path
         id="path4216"
         d="M 0,0 5,-5 -12.5,0 5,5 0,0 Z"
         style="fill:#ffffff;fill-opacity:1;fill-rule:evenodd;stroke:#ffffff;stroke-width:1pt;stroke-opacity:1"
         transform="matrix(-0.4,0,0,-0.4,-4,0)"
         inkscape:connector-curvature="0" />
    </marker>
    <marker
       inkscape:stockid="Arrow1Lend"
       orient="auto"
       refY="0"
       refX="0"
       id="marker4466"
       style="overflow:visible"
       inkscape:isstock="true">
      <path
         id="path4210"
         d="M 0,0 5,-5 -12.5,0 5,5 0,0 Z"
         style="fill:#ffffff;fill-opacity:1;fill-rule:evenodd;stroke:#ffffff;stroke-width:1pt;stroke-opacity:1"
         transform="matrix(-0.8,0,0,-0.8,-10,0)"
         inkscape:connector-curvature="0" />
    </marker>
    <marker
       inkscape:stockid="Arrow2Lend"
       orient="auto"
       refY="0"
       refX="0"
       id="marker4463"
       style="overflow:visible"
       inkscape:isstock="true">
      <path
         id="path4228"
         style="fill:#ffffff;fill-opacity:1;fill-rule:evenodd;stroke:#ffffff;stroke-width:0.625;stroke-linejoin:round;stroke-opacity:1"
         d="M 8.7185878,4.0337352 -2.2072895,0.01601326 8.7185884,-4.0017078 c -1.7454984,2.3720609 -1.7354408,5.6174519 -6e-7,8.035443 z"
         transform="matrix(-1.1,0,0,-1.1,-1.1,0)"
         inkscape:connector-curvature="0" />
    </marker>
    <marker
       inkscape:stockid="Arrow2Lend"
       orient="auto"
       refY="0"
       refX="0"
       id="marker8536"
       style="overflow:visible"
       inkscape:isstock="true">
      <path
         id="path8538"
         style="fill:#ffffff;fill-opacity:1;fill-rule:evenodd;stroke:#ffffff;stroke-width:0.625;stroke-linejoin:round;stroke-opacity:1"
         d="M 8.7185878,4.0337352 -2.2072895,0.01601326 8.7185884,-4.0017078 c -1.7454984,2.3720609 -1.7354408,5.6174519 -6e-7,8.035443 z"
         transform="matrix(-1.1,0,0,-1.1,-1.1,0)"
         inkscape:connector-curvature="0" />
    </marker>
    <marker
       inkscape:stockid="Arrow2Lend"
       orient="auto"
       refY="0"
       refX="0"
       id="marker8367"
       style="overflow:visible"
       inkscape:isstock="true">
      <path
         id="path8369"
         style="fill:#ffffff;fill-opacity:1;fill-rule:evenodd;stroke:#ffffff;stroke-width:0.625;stroke-linejoin:round;stroke-opacity:1"
         d="M 8.7185878,4.0337352 -2.2072895,0.01601326 8.7185884,-4.0017078 c -1.7454984,2.3720609 -1.7354408,5.6174519 -6e-7,8.035443 z"
         transform="matrix(-1.1,0,0,-1.1,-1.1,0)"
         inkscape:connector-curvature="0" />
    </marker>
    <marker
       inkscape:stockid="Arrow2Lend"
       orient="auto"
       refY="0"
       refX="0"
       id="marker7742"
       style="overflow:visible"
       inkscape:isstock="true">
      <path
         id="path7744"
         style="fill:#ffffff;fill-opacity:1;fill-rule:evenodd;stroke:#ffffff;stroke-width:0.625;stroke-linejoin:round;stroke-opacity:1"
         d="M 8.7185878,4.0337352 -2.2072895,0.01601326 8.7185884,-4.0017078 c -1.7454984,2.3720609 -1.7354408,5.6174519 -6e-7,8.035443 z"
         transform="matrix(-1.1,0,0,-1.1,-1.1,0)"
         inkscape:connector-curvature="0" />
    </marker>
    <marker
       inkscape:stockid="Arrow2Lend"
       orient="auto"
       refY="0"
       refX="0"
       id="marker7020"
       style="overflow:visible"
       inkscape:isstock="true">
      <path
         id="path7022"
         style="fill:#ffffff;fill-opacity:1;fill-rule:evenodd;stroke:#ffffff;stroke-width:0.625;stroke-linejoin:round;stroke-opacity:1"
         d="M 8.7185878,4.0337352 -2.2072895,0.01601326 8.7185884,-4.0017078 c -1.7454984,2.3720609 -1.7354408,5.6174519 -6e-7,8.035443 z"
         transform="matrix(-1.1,0,0,-1.1,-1.1,0)"
         inkscape:connector-curvature="0" />
    </marker>
    <marker
       inkscape:stockid="Arrow2Lend"
       orient="auto"
       refY="0"
       refX="0"
       id="marker4649"
       style="overflow:visible"
       inkscape:isstock="true">
      <path
         id="path4651"
         style="fill:#ffffff;fill-opacity:1;fill-rule:evenodd;stroke:#ffffff;stroke-width:0.625;stroke-linejoin:round;stroke-opacity:1"
         d="M 8.7185878,4.0337352 -2.2072895,0.01601326 8.7185884,-4.0017078 c -1.7454984,2.3720609 -1.7354408,5.6174519 -6e-7,8.035443 z"
         transform="matrix(-1.1,0,0,-1.1,-1.1,0)"
         inkscape:connector-curvature="0" />
    </marker>
    <marker
       inkscape:stockid="Arrow1Lend"
       orient="auto"
       refY="0"
       refX="0"
       id="Arrow1Lend"
       style="overflow:visible"
       inkscape:isstock="true">
      <path
         id="path4350"
         d="M 0,0 5,-5 -12.5,0 5,5 0,0 Z"
         style="fill:#ffffff;fill-opacity:1;fill-rule:evenodd;stroke:#ffffff;stroke-width:1pt;stroke-opacity:1"
         transform="matrix(-0.8,0,0,-0.8,-10,0)"
         inkscape:connector-curvature="0" />
    </marker>
    <marker
       inkscape:stockid="Arrow2Lend"
       orient="auto"
       refY="0"
       refX="0"
       id="Arrow2Lend"
       style="overflow:visible"
       inkscape:isstock="true">
      <path
         id="path4368"
         style="fill:#ffffff;fill-opacity:1;fill-rule:evenodd;stroke:#ffffff;stroke-width:0.625;stroke-linejoin:round;stroke-opacity:1"
         d="M 8.7185878,4.0337352 -2.2072895,0.01601326 8.7185884,-4.0017078 c -1.7454984,2.3720609 -1.7354408,5.6174519 -6e-7,8.035443 z"
         transform="matrix(-1.1,0,0,-1.1,-1.1,0)"
         inkscape:connector-curvature="0" />
    </marker>
    <marker
       inkscape:stockid="Arrow2Lend"
       orient="auto"
       refY="0"
       refX="0"
       id="marker4649-1"
       style="overflow:visible"
       inkscape:isstock="true">
      <path
         inkscape:connector-curvature="0"
         id="path4651-2"
         style="fill:#ffffff;fill-opacity:1;fill-rule:evenodd;stroke:#ffffff;stroke-width:0.625;stroke-linejoin:round;stroke-opacity:1"
         d="M 8.7185878,4.0337352 -2.2072895,0.01601326 8.7185884,-4.0017078 c -1.7454984,2.3720609 -1.7354408,5.6174519 -6e-7,8.035443 z"
         transform="matrix(-1.1,0,0,-1.1,-1.1,0)" />
    </marker>
    <marker
       inkscape:stockid="Arrow2Lend"
       orient="auto"
       refY="0"
       refX="0"
       id="marker7020-9"
       style="overflow:visible"
       inkscape:isstock="true">
      <path
         inkscape:connector-curvature="0"
         id="path7022-5"
         style="fill:#ffffff;fill-opacity:1;fill-rule:evenodd;stroke:#ffffff;stroke-width:0.625;stroke-linejoin:round;stroke-opacity:1"
         d="M 8.7185878,4.0337352 -2.2072895,0.01601326 8.7185884,-4.0017078 c -1.7454984,2.3720609 -1.7354408,5.6174519 -6e-7,8.035443 z"
         transform="matrix(-1.1,0,0,-1.1,-1.1,0)" />
    </marker>
    <marker
       inkscape:stockid="Arrow2Lend"
       orient="auto"
       refY="0"
       refX="0"
       id="marker7742-4"
       style="overflow:visible"
       inkscape:isstock="true">
      <path
         inkscape:connector-curvature="0"
         id="path7744-7"
         style="fill:#ffffff;fill-opacity:1;fill-rule:evenodd;stroke:#ffffff;stroke-width:0.625;stroke-linejoin:round;stroke-opacity:1"
         d="M 8.7185878,4.0337352 -2.2072895,0.01601326 8.7185884,-4.0017078 c -1.7454984,2.3720609 -1.7354408,5.6174519 -6e-7,8.035443 z"
         transform="matrix(-1.1,0,0,-1.1,-1.1,0)" />
    </marker>
    <marker
       inkscape:stockid="Arrow2Lend"
       orient="auto"
       refY="0"
       refX="0"
       id="marker8367-6"
       style="overflow:visible"
       inkscape:isstock="true">
      <path
         inkscape:connector-curvature="0"
         id="path8369-4"
         style="fill:#ffffff;fill-opacity:1;fill-rule:evenodd;stroke:#ffffff;stroke-width:0.625;stroke-linejoin:round;stroke-opacity:1"
         d="M 8.7185878,4.0337352 -2.2072895,0.01601326 8.7185884,-4.0017078 c -1.7454984,2.3720609 -1.7354408,5.6174519 -6e-7,8.035443 z"
         transform="matrix(-1.1,0,0,-1.1,-1.1,0)" />
    </marker>
  </defs>
  <sodipodi:namedview
     id="base"
     pagecolor="#202020"
     bordercolor="#666666"
     borderopacity="1.0"
     inkscape:pageopacity="0"
     inkscape:pageshadow="2"
     inkscape:zoom="1"
     inkscape:cx="375.97621"
     inkscape:cy="67.716525"
     inkscape:current-layer="layer1"
     inkscape:document-units="px"
     showgrid="true"
     showguides="false"
     inkscape:snap-text-baseline="true"
     inkscape:snap-to-guides="true"
     inkscape:snap-grids="true"
     inkscape:window-width="1920"
     inkscape:window-height="1016"
     inkscape:window-x="0"
     inkscape:window-y="27"
     inkscape:window-maximized="1"
     units="cm"
     fit-margin-top="0.5"
     fit-margin-left="0.5"
     fit-margin-right="0.5"
     fit-margin-bottom="0.5">
    <inkscape:grid
       type="xygrid"
       id="grid4298"
       originx="78.476209"
       originy="-232.28349" />
  </sodipodi:namedview>
  <metadata
     id="metadata3469">
    <rdf:RDF>
      <cc:Work
         rdf:about="">
        <dc:format>image/svg+xml</dc:format>
        <dc:type
           rdf:resource="http://purl.org/dc/dcmitype/StillImage" />
        <dc:title></dc:title>
      </cc:Work>
    </rdf:RDF>
  </metadata>
  <g
     id="layer1"
     inkscape:label="Layer 1"
     inkscape:groupmode="layer"
     transform="translate(78.476215,-142.33038)">
    <flowRoot
       xml:space="preserve"
       id="flowRoot3480"
       style="font-style:normal;font-weight:normal;font-size:40px;line-height:125%;font-family:sans-serif;letter-spacing:0px;word-spacing:0px;fill:#000000;fill-opacity:1;stroke:none;stroke-width:1px;stroke-linecap:butt;stroke-linejoin:miter;stroke-opacity:1"><flowRegion
         id="flowRegion3482"><rect
           id="rect3484"
           width="67"
           height="41"
           x="173"
           y="88" /></flowRegion><flowPara
         id="flowPara3486" /></flowRoot>    <flowRoot
       xml:space="preserve"
       id="flowRoot3488"
       style="font-style:normal;font-weight:normal;font-size:40px;line-height:125%;font-family:sans-serif;letter-spacing:0px;word-spacing:0px;fill:#000000;fill-opacity:1;stroke:none;stroke-width:1px;stroke-linecap:butt;stroke-linejoin:miter;stroke-opacity:1"><flowRegion
         id="flowRegion3490"><rect
           id="rect3492"
           width="65"
           height="44"
           x="174"
           y="90" /></flowRegion><flowPara
         id="flowPara3494">5</flowPara></flowRoot>    <path
       style="fill:#ffffff;fill-rule:evenodd;stroke:#ffffff;stroke-width:4;stroke-linecap:butt;stroke-linejoin:miter;stroke-opacity:1;marker-end:url(#Arrow1Mend)"
       d="m -60,172 800,-2"
       id="path4201"
       inkscape:connector-curvature="0"
       sodipodi:nodetypes="cc" />
    <text
       xml:space="preserve"
       style="font-style:normal;font-weight:normal;font-size:40px;line-height:125%;font-family:sans-serif;letter-spacing:0px;word-spacing:0px;fill:#000000;fill-opacity:1;stroke:none;stroke-width:1px;stroke-linecap:butt;stroke-linejoin:miter;stroke-opacity:1"
       x="620"
       y="200"
       id="text4471"
       sodipodi:linespacing="125%"><tspan
         sodipodi:role="line"
         id="tspan4473"
         x="620"
         y="200"
         style="font-style:italic;font-variant:normal;font-weight:normal;font-stretch:normal;font-size:25px;font-family:sans-serif;-inkscape-font-specification:'sans-serif Italic';fill:#cccccc;stroke:#cccccc">computational</tspan><tspan
         sodipodi:role="line"
         x="620"
         y="231.25"
         style="font-style:italic;font-variant:normal;font-weight:normal;font-stretch:normal;font-size:25px;font-family:sans-serif;-inkscape-font-specification:'sans-serif Italic';fill:#cccccc;stroke:#cccccc"
         id="tspan4494">difficulty</tspan></text>
    <text
       xml:space="preserve"
       style="font-style:normal;font-weight:normal;font-size:40px;line-height:125%;font-family:sans-serif;letter-spacing:0px;word-spacing:0px;fill:#000000;fill-opacity:1;stroke:none;stroke-width:1px;stroke-linecap:butt;stroke-linejoin:miter;stroke-opacity:1"
       x="600"
       y="280"
       id="text4471-3"
       sodipodi:linespacing="125%"><tspan
         sodipodi:role="line"
         x="600"
         y="280"
         style="font-style:normal;font-variant:normal;font-weight:normal;font-stretch:normal;font-size:25px;font-family:sans-serif;-inkscape-font-specification:sans-serif;fill:#ffff00;stroke:#ffff00"
         id="tspan4494-1">undecidable</tspan></text>
    <text
       xml:space="preserve"
       style="font-style:normal;font-weight:normal;font-size:40px;line-height:125%;font-family:sans-serif;text-align:center;letter-spacing:0px;word-spacing:0px;text-anchor:middle;fill:#000000;fill-opacity:1;stroke:none;stroke-width:1px;stroke-linecap:butt;stroke-linejoin:miter;stroke-opacity:1"
       x="20"
       y="240"
       id="text4471-3-2"
       sodipodi:linespacing="125%"><tspan
         sodipodi:role="line"
         x="20"
         y="240"
         style="font-style:normal;font-variant:normal;font-weight:normal;font-stretch:normal;font-size:25px;font-family:sans-serif;-inkscape-font-specification:sans-serif;text-align:center;text-anchor:middle;fill:#ffff00;stroke:#ffff00"
         id="tspan4494-1-9">P</tspan></text>
    <text
       xml:space="preserve"
       style="font-style:normal;font-weight:normal;font-size:40px;line-height:125%;font-family:sans-serif;letter-spacing:0px;word-spacing:0px;fill:#000000;fill-opacity:1;stroke:none;stroke-width:1px;stroke-linecap:butt;stroke-linejoin:miter;stroke-opacity:1"
       x="160"
       y="290"
       id="text4471-3-3"
       sodipodi:linespacing="125%"><tspan
         sodipodi:role="line"
         x="160"
         y="290"
         style="font-style:normal;font-variant:normal;font-weight:normal;font-stretch:normal;font-size:25px;font-family:sans-serif;-inkscape-font-specification:sans-serif;fill:#ffff00;stroke:#ffff00"
         id="tspan4494-1-1">EXP</tspan></text>
    <text
       xml:space="preserve"
       style="font-style:normal;font-weight:normal;font-size:40px;line-height:125%;font-family:sans-serif;letter-spacing:0px;word-spacing:0px;fill:#000000;fill-opacity:1;stroke:none;stroke-width:1px;stroke-linecap:butt;stroke-linejoin:miter;stroke-opacity:1"
       x="260"
       y="350"
       id="text4471-3-9"
       sodipodi:linespacing="125%"><tspan
         sodipodi:role="line"
         x="260"
         y="350"
         style="font-style:normal;font-variant:normal;font-weight:normal;font-stretch:normal;font-size:25px;font-family:sans-serif;-inkscape-font-specification:sans-serif;fill:#ffff00;stroke:#ffff00"
         id="tspan4494-1-4">R</tspan></text>
    <g
       style="font-style:normal;font-weight:normal;font-size:40px;line-height:125%;font-family:sans-serif;letter-spacing:0px;word-spacing:0px;fill:#000000;fill-opacity:1;stroke:none;stroke-width:1px;stroke-linecap:butt;stroke-linejoin:miter;stroke-opacity:1"
       id="text10429"
       transform="matrix(0,-5.2073322,9.2624322,0,-1882.4736,1648.6607)">
      <g
         transform="scale(1.2997943,0.7693525)"
         style="font-style:normal;font-weight:normal;font-size:27.44225121px;line-height:125%;font-family:sans-serif;letter-spacing:0px;word-spacing:0px;fill:#000000;fill-opacity:1;stroke:none;stroke-width:1px;stroke-linecap:butt;stroke-linejoin:miter;stroke-opacity:1"
         id="text10436">
        <path
           d="m 215.27353,259.16604 c 0,-1.05071 0.54586,-1.8851 1.30533,-1.97781 0.45093,-0.0618 0.61706,-0.21633 0.61706,-0.64897 0,-0.37084 -0.2136,-0.61807 -0.5696,-0.61807 -1.30532,0 -2.32585,1.42155 -2.32585,3.24485 l 0,5.34629 c 0,1.14342 -0.5696,1.91601 -1.424,2.00872 -0.37973,0.0309 -0.56959,0.24723 -0.56959,0.64897 0,0.43264 0.18986,0.61806 0.56959,0.64897 0.8544,0.0927 1.424,0.8962 1.424,2.00872 l 0,5.34628 c 0,1.8233 1.02053,3.24486 2.32585,3.24486 0.356,0 0.5696,-0.24723 0.5696,-0.61807 0,-0.43265 -0.16613,-0.58716 -0.61706,-0.64897 -0.75947,-0.0927 -1.30533,-0.9271 -1.30533,-1.97782 l 0,-5.34628 c 0,-1.26704 -0.26106,-1.91601 -1.04426,-2.65769 0.7832,-0.74168 1.04426,-1.39066 1.04426,-2.65769 l 0,-5.34629 z"
           style="font-style:normal;font-variant:normal;font-weight:normal;font-stretch:normal;font-size:61.74506378px;font-family:'Nimbus Mono L';-inkscape-font-specification:'Nimbus Mono L';fill:#ffffff"
           id="path10444"
           inkscape:connector-curvature="0" />
      </g>
    </g>
    <g
       style="font-style:normal;font-weight:normal;font-size:40px;line-height:125%;font-family:sans-serif;letter-spacing:0px;word-spacing:0px;fill:#000000;fill-opacity:1;stroke:none;stroke-width:1px;stroke-linecap:butt;stroke-linejoin:miter;stroke-opacity:1"
       id="text10429-1"
       transform="matrix(0,-5.2073322,28.50139,0,-5672.5012,1700.6607)">
      <g
         transform="scale(1.2997943,0.7693525)"
         style="font-style:normal;font-weight:normal;font-size:27.44225121px;line-height:125%;font-family:sans-serif;letter-spacing:0px;word-spacing:0px;fill:#000000;fill-opacity:1;stroke:none;stroke-width:1px;stroke-linecap:butt;stroke-linejoin:miter;stroke-opacity:1"
         id="text10436-7">
        <path
           d="m 215.27353,259.16604 c 0,-1.05071 0.54586,-1.8851 1.30533,-1.97781 0.45093,-0.0618 0.61706,-0.21633 0.61706,-0.64897 0,-0.37084 -0.2136,-0.61807 -0.5696,-0.61807 -1.30532,0 -2.32585,1.42155 -2.32585,3.24485 l 0,5.34629 c 0,1.14342 -0.5696,1.91601 -1.424,2.00872 -0.37973,0.0309 -0.56959,0.24723 -0.56959,0.64897 0,0.43264 0.18986,0.61806 0.56959,0.64897 0.8544,0.0927 1.424,0.8962 1.424,2.00872 l 0,5.34628 c 0,1.8233 1.02053,3.24486 2.32585,3.24486 0.356,0 0.5696,-0.24723 0.5696,-0.61807 0,-0.43265 -0.16613,-0.58716 -0.61706,-0.64897 -0.75947,-0.0927 -1.30533,-0.9271 -1.30533,-1.97782 l 0,-5.34628 c 0,-1.26704 -0.26106,-1.91601 -1.04426,-2.65769 0.7832,-0.74168 1.04426,-1.39066 1.04426,-2.65769 l 0,-5.34629 z"
           style="font-style:normal;font-variant:normal;font-weight:normal;font-stretch:normal;font-size:61.74506378px;font-family:'Nimbus Mono L';-inkscape-font-specification:'Nimbus Mono L';fill:#ffffff"
           id="path10444-5"
           inkscape:connector-curvature="0" />
      </g>
    </g>
    <g
       style="font-style:normal;font-weight:normal;font-size:40px;line-height:125%;font-family:sans-serif;letter-spacing:0px;word-spacing:0px;fill:#000000;fill-opacity:1;stroke:none;stroke-width:1px;stroke-linecap:butt;stroke-linejoin:miter;stroke-opacity:1"
       id="text10429-17"
       transform="matrix(0,-5.2073322,9.2624322,0,-1881.4736,1760.6607)">
      <g
         transform="matrix(1.2997943,0,0,3.1015959,0,-596.87051)"
         style="font-style:normal;font-weight:normal;font-size:27.44225121px;line-height:125%;font-family:sans-serif;letter-spacing:0px;word-spacing:0px;fill:#000000;fill-opacity:1;stroke:none;stroke-width:1px;stroke-linecap:butt;stroke-linejoin:miter;stroke-opacity:1"
         id="text10436-8">
        <path
           d="m 215.27353,259.16604 c 0,-1.05071 0.54586,-1.8851 1.30533,-1.97781 0.45093,-0.0618 0.61706,-0.21633 0.61706,-0.64897 0,-0.37084 -0.2136,-0.61807 -0.5696,-0.61807 -1.30532,0 -2.32585,1.42155 -2.32585,3.24485 l 0,5.34629 c 0,1.14342 -0.5696,1.91601 -1.424,2.00872 -0.37973,0.0309 -0.56959,0.24723 -0.56959,0.64897 0,0.43264 0.18986,0.61806 0.56959,0.64897 0.8544,0.0927 1.424,0.8962 1.424,2.00872 l 0,5.34628 c 0,1.8233 1.02053,3.24486 2.32585,3.24486 0.356,0 0.5696,-0.24723 0.5696,-0.61807 0,-0.43265 -0.16613,-0.58716 -0.61706,-0.64897 -0.75947,-0.0927 -1.30533,-0.9271 -1.30533,-1.97782 l 0,-5.34628 c 0,-1.26704 -0.26106,-1.91601 -1.04426,-2.65769 0.7832,-0.74168 1.04426,-1.39066 1.04426,-2.65769 l 0,-5.34629 z"
           style="font-style:normal;font-variant:normal;font-weight:normal;font-stretch:normal;font-size:61.74506378px;font-family:'Nimbus Mono L';-inkscape-font-specification:'Nimbus Mono L';fill:#ffffff"
           id="path10444-57"
           inkscape:connector-curvature="0" />
      </g>
    </g>
    <path
       style="fill:none;fill-rule:evenodd;stroke:#ffffff;stroke-width:4;stroke-linecap:butt;stroke-linejoin:miter;stroke-miterlimit:4;stroke-dasharray:8, 4;stroke-dashoffset:0;stroke-opacity:1"
       d="m 590,170 0,120"
       id="path10516"
       inkscape:connector-curvature="0" />
    <path
       style="fill:none;fill-rule:evenodd;stroke:#ffffff;stroke-width:4;stroke-linecap:butt;stroke-linejoin:miter;stroke-miterlimit:4;stroke-dasharray:8, 4;stroke-dashoffset:0;stroke-opacity:1"
       d="m 434,169 1,62"
       id="path10516-9"
       inkscape:connector-curvature="0"
       sodipodi:nodetypes="cc" />
  </g>
</svg>
